<svg xmlns="http://www.w3.org/2000/svg" viewBox="0 0 64 64"><path fill="#fa6e34" d="M62.5 51.5c0 6.08-4.92 11-11 11-.51 0-1.01-.03-1.5-.11-3.17-.42-5.91-2.2-7.62-4.74v-.02c1.95-2.34 3.12-5.35 3.12-8.63 0-2.05-.46-4-1.28-5.74v-.01c1.58-1.4 3.57-2.35 5.77-2.64.49-.07 1-.11 1.51-.11 6.08 0 11 4.92 11 11z"/><path fill="#fa8840" d="M59.5 51.5c0 5.57-4.13 10.17-9.5 10.89-3.17-.42-5.91-2.2-7.62-4.74v-.02c1.95-2.34 3.12-5.35 3.12-8.63 0-2.05-.46-4-1.28-5.74v-.01c1.58-1.4 3.57-2.35 5.77-2.64 5.37.71 9.51 5.31 9.51 10.89z"/><path fill="#fff" d="M62.487 31.5c-.268-16.613-13.81-30-30.487-30S1.781 14.887 1.513 31.5h60.974z"/><path fill="#2baefe" d="M62.49 31.5H3.51C3.76 15.73 15.99 2.86 31.5 1.61c.32-.03.63-.05.95-.07h.1c.13-.01.25-.01.38-.02C49.18 2 62.23 15.2 62.49 31.5z"/><path fill="#3cf" d="M59.49 31.5H3.51C3.76 15.73 15.99 2.86 31.5 1.61 47.01 2.86 59.24 15.73 59.49 31.5z"/><path fill="#ffb612" d="M45.5 49c0 3.28-1.17 6.29-3.12 8.63-2.47 2.98-6.2 4.87-10.38 4.87-.51 0-1.01-.03-1.5-.09-3.56-.39-6.7-2.16-8.87-4.78A13.39 13.39 0 0 1 18.5 49c0-1.12.14-2.2.39-3.23.21-.88.51-1.71.89-2.51 1.95-4.16 5.96-7.15 10.72-7.67.04 0 .07-.01.11-.01.45-.05.92-.08 1.39-.08s.94.02 1.4.08c4.8.49 8.85 3.49 10.82 7.67v.01C45.04 45 45.5 46.95 45.5 49z"/><ellipse cx="30.5" cy="49" fill="#fdcc32" rx="12" ry="13.41"/><path fill="#fff" d="M21.63 57.63a10.961 10.961 0 0 1-9.13 4.87c-6.08 0-11-4.92-11-11s4.92-11 11-11c2.79 0 5.34 1.04 7.28 2.76A13.41 13.41 0 0 0 18.5 49c0 3.29 1.17 6.3 3.13 8.63z"/><path fill="#fa6e34" d="M21.63 57.63c-1.8 2.68-4.74 4.52-8.13 4.82a4.26 4.26 0 0 1-.5-.06c-.34-.05-.67-.11-.99-.18h-.02C7.12 61.08 3.5 56.71 3.5 51.5c0-5.21 3.62-9.58 8.49-10.71h.02c.32-.07.65-.13.99-.18.17-.03.33-.05.5-.06 2.4.21 4.58 1.2 6.28 2.71A13.41 13.41 0 0 0 18.5 49c0 3.29 1.17 6.3 3.13 8.63z"/><path fill="#fa8840" d="M19.92 55.03c-1.21 3.57-4.2 6.32-7.91 7.18h-.02C7.12 61.08 3.5 56.71 3.5 51.5c0-5.21 3.62-9.58 8.49-10.71h.02c2.91.67 5.37 2.5 6.88 4.98A13.67 13.67 0 0 0 18.5 49c0 2.17.51 4.22 1.42 6.03z"/><path fill="#3cf" d="M37.5 44.5v-3h-4v-3h-3v3h-4v9h8v3h-8v3h4v3h3v-3h4v-9h-8v-3z"/><path fill="#fdcc32" d="M16.5 47.5v-2h-3v-2h-2v2h-3v7h6v3h-6v2h3v2h2v-2h3v-7h-6v-3zM55.5 47.5v-2h-3v-2h-2v2h-3v7h6v3h-6v2h3v2h2v-2h3v-7h-6v-3z"/><path fill="#2baefe" d="M33.5 31.5v4.08h-.1c-.46-.06-.93-.08-1.4-.08s-.94.03-1.39.08h-.11V31.5h3z"/><path fill="#fa6e34" d="M44.49 31.5H19.51c.1-15.38 4.87-28 10.99-29.78.49-.15.99-.22 1.5-.22 6.83 0 12.38 13.39 12.49 30z"/><path fill="#fa8840" d="M41.49 31.5H19.51c.1-15.38 4.87-28 10.99-29.78 6.12 1.78 10.89 14.4 10.99 29.78z"/><path fill="#3cf" d="M32 31.5v4c-.47 0-.94.03-1.39.08h-.11V31.5H32z"/><path fill="#1c225c" d="M32 63c-7.72 0-14-6.28-14-14s6.28-14 14-14 14 6.28 14 14-6.28 14-14 14zm0-27c-7.168 0-13 5.832-13 13s5.832 13 13 13 13-5.832 13-13-5.832-13-13-13z"/><path fill="#1c225c" d="M33.5 60h-3a.5.5 0 0 1-.5-.5V57h-3.5a.5.5 0 0 1-.5-.5v-3a.5.5 0 0 1 .5-.5H34v-2h-7.5a.5.5 0 0 1-.5-.5v-9a.5.5 0 0 1 .5-.5H30v-2.5a.5.5 0 0 1 .5-.5h3a.5.5 0 0 1 .5.5V41h3.5a.5.5 0 0 1 .5.5v3a.5.5 0 0 1-.5.5H30v2h7.5a.5.5 0 0 1 .5.5v9a.5.5 0 0 1-.5.5H34v2.5a.5.5 0 0 1-.5.5zM31 59h2v-2.5a.5.5 0 0 1 .5-.5H37v-8h-7.5a.5.5 0 0 1-.5-.5v-3a.5.5 0 0 1 .5-.5H37v-2h-3.5a.5.5 0 0 1-.5-.5V39h-2v2.5a.5.5 0 0 1-.5.5H27v8h7.5a.5.5 0 0 1 .5.5v3a.5.5 0 0 1-.5.5H27v2h3.5a.5.5 0 0 1 .5.5V59zM1.962 55.163a.5.5 0 0 1-.479-.356A11.481 11.481 0 0 1 1 51.5C1 45.159 6.159 40 12.5 40c2.808 0 5.511 1.022 7.611 2.879a.5.5 0 1 1-.662.749A10.49 10.49 0 0 0 12.5 41C6.71 41 2 45.71 2 51.5c0 1.029.148 2.045.44 3.02a.5.5 0 0 1-.478.643zM4.454 59.5a.494.494 0 0 1-.365-.159 11.64 11.64 0 0 1-1.343-1.746.5.5 0 1 1 .847-.53c.357.569.77 1.106 1.226 1.595a.5.5 0 0 1-.365.84zM12.5 63c-1.845 0-3.68-.448-5.307-1.295a.5.5 0 1 1 .463-.886A10.538 10.538 0 0 0 12.5 62c3.497 0 6.755-1.734 8.713-4.638a.5.5 0 0 1 .83.559A11.5 11.5 0 0 1 12.5 63z"/><path fill="#1c225c" d="M13.5 60h-2a.5.5 0 0 1-.5-.5V58H8.5a.5.5 0 0 1-.5-.5v-2a.5.5 0 0 1 .5-.5H14v-2H8.5a.5.5 0 0 1-.5-.5v-7a.5.5 0 0 1 .5-.5H11v-1.5a.5.5 0 0 1 .5-.5h2a.5.5 0 0 1 .5.5V45h2.5a.5.5 0 0 1 .5.5v2a.5.5 0 0 1-.5.5H11v2h5.5a.5.5 0 0 1 .5.5v7a.5.5 0 0 1-.5.5H14v1.5a.5.5 0 0 1-.5.5zM12 59h1v-1.5a.5.5 0 0 1 .5-.5H16v-6h-5.5a.5.5 0 0 1-.5-.5v-3a.5.5 0 0 1 .5-.5H16v-1h-2.5a.5.5 0 0 1-.5-.5V44h-1v1.5a.5.5 0 0 1-.5.5H9v6h5.5a.5.5 0 0 1 .5.5v3a.5.5 0 0 1-.5.5H9v1h2.5a.5.5 0 0 1 .5.5V59zm39.5 4a11.493 11.493 0 0 1-9.535-5.07.499.499 0 1 1 .828-.559A10.498 10.498 0 0 0 51.5 62C57.29 62 62 57.29 62 51.5S57.29 41 51.5 41c-2.563 0-5.032.934-6.95 2.629a.5.5 0 1 1-.662-.749A11.484 11.484 0 0 1 51.5 40C57.841 40 63 45.159 63 51.5S57.841 63 51.5 63z"/><path fill="#1c225c" d="M52.5 60h-2a.5.5 0 0 1-.5-.5V58h-2.5a.5.5 0 0 1-.5-.5v-2a.5.5 0 0 1 .5-.5H53v-2h-5.5a.5.5 0 0 1-.5-.5v-7a.5.5 0 0 1 .5-.5H50v-1.5a.5.5 0 0 1 .5-.5h2a.5.5 0 0 1 .5.5V45h2.5a.5.5 0 0 1 .5.5v2a.5.5 0 0 1-.5.5H50v2h5.5a.5.5 0 0 1 .5.5v7a.5.5 0 0 1-.5.5H53v1.5a.5.5 0 0 1-.5.5zM51 59h1v-1.5a.5.5 0 0 1 .5-.5H55v-6h-5.5a.5.5 0 0 1-.5-.5v-3a.5.5 0 0 1 .5-.5H55v-1h-2.5a.5.5 0 0 1-.5-.5V44h-1v1.5a.5.5 0 0 1-.5.5H48v6h5.5a.5.5 0 0 1 .5.5v3a.5.5 0 0 1-.5.5H48v1h2.5a.5.5 0 0 1 .5.5V59zm3.296-47.306a.493.493 0 0 1-.365-.159c-.47-.503-.964-.998-1.469-1.469a.5.5 0 1 1 .682-.731c.522.487 1.033.999 1.518 1.519a.5.5 0 0 1-.366.84z"/><path fill="#1c225c" d="M62.487 32H1.513a.5.5 0 0 1-.5-.508C1.284 14.679 15.186 1 32 1c6.67 0 13.023 2.086 18.374 6.033a.499.499 0 1 1-.594.804C44.603 4.019 38.454 2 32 2 15.897 2 2.557 14.963 2.025 31h59.949a29.718 29.718 0 0 0-6.344-17.476.5.5 0 0 1 .787-.617c4.188 5.352 6.459 11.778 6.569 18.583a.5.5 0 0 1-.499.51zM51.5 39a.5.5 0 0 1-.5-.5v-4a.5.5 0 0 1 1 0v4a.5.5 0 0 1-.5.5zm3 0a.5.5 0 0 1-.5-.5v-2a.5.5 0 0 1 1 0v2a.5.5 0 0 1-.5.5zm-6 0a.5.5 0 0 1-.5-.5v-2a.5.5 0 0 1 1 0v2a.5.5 0 0 1-.5.5zm-36 0a.5.5 0 0 1-.5-.5v-4a.5.5 0 0 1 1 0v4a.5.5 0 0 1-.5.5zm3 0a.5.5 0 0 1-.5-.5v-2a.5.5 0 0 1 1 0v2a.5.5 0 0 1-.5.5zm-6 0a.5.5 0 0 1-.5-.5v-2a.5.5 0 0 1 1 0v2a.5.5 0 0 1-.5.5z"/><path fill="#1c225c" d="M33.5 36.083a.5.5 0 0 1-.5-.5V32h-2v3.583a.5.5 0 0 1-1 0V31.5a.5.5 0 0 1 .5-.5h3a.5.5 0 0 1 .5.5v4.083a.5.5 0 0 1-.5.5z"/><path fill="#1c225c" d="M44.495 32h-24.99a.499.499 0 0 1-.5-.503C19.118 14.396 24.826 1 32 1s12.882 13.396 12.995 30.497a.502.502 0 0 1-.5.503zM20.01 31h23.98C43.776 14.962 38.439 2 32 2S20.224 14.962 20.01 31z"/></svg>