<svg xmlns="http://www.w3.org/2000/svg" xmlns:xlink="http://www.w3.org/1999/xlink" width="48" height="48" id="electricity"><defs><linearGradient id="b" x1="868.253" x2="937.656" y1="521.354" y2="588.736" gradientTransform="translate(-937.226 -625.577) scale(1.53785)" gradientUnits="userSpaceOnUse" xlink:href="#a"></linearGradient><linearGradient id="a"><stop offset="0" stop-color="#24f3d2"></stop><stop offset=".394" stop-color="#0674f0"></stop><stop offset=".507" stop-color="#6961b5"></stop><stop offset=".813" stop-color="#f34660"></stop><stop offset="1" stop-color="#ee078d"></stop></linearGradient></defs><g transform="translate(-389.743 -167.442)"><rect width="48" height="48" x="389.743" y="167.442" fill="url(#b)" rx="10.144" ry="10.144"></rect><path style="line-height:normal;text-indent:0;text-align:start;text-decoration-line:none;text-decoration-style:solid;text-decoration-color:#000;text-transform:none;block-progression:tb;isolation:auto;mix-blend-mode:normal" fill="#fff" d="M412.243 175.436a.5.5 0 0 0-.477.354l-2 6.5a.5.5 0 0 0-.023.146v.038a.5.5 0 0 0-.146.09l-6.688 6a.5.5 0 0 0-.16.458.5.5 0 0 0-.006.08v.827a.5.5 0 1 0 1 0v-.493h1v.493a.5.5 0 1 0 1 0v-.493h2.88l-5.714 5.127a.5.5 0 0 0-.16.46.5.5 0 0 0-.006.08v.826a.5.5 0 1 0 1 0v-.493h1v.493a.5.5 0 1 0 1 0v-.493h3.691l-4.5 9h-6.191v1h8.342l.006.006.006-.006h13.287l.006.006.006-.006h8.347v-1h-6.191l-4.5-9h3.691v.493a.5.5 0 1 0 1 0v-.493h1v.493a.5.5 0 1 0 1 0v-.827a.5.5 0 0 0-.008-.08.5.5 0 0 0 0-.004.5.5 0 0 0-.156-.453l-5.69-5.129h2.854v.492a.5.5 0 1 0 1 0v-.492h1v.492a.5.5 0 1 0 1 0v-.826a.5.5 0 0 0-.008-.08.5.5 0 0 0-.156-.457l-6.656-6a.5.5 0 0 0-.18-.101v-.028a.5.5 0 0 0-.022-.146l-2-6.5a.5.5 0 0 0-.478-.354h-3zm.37 1h2.26l1.847 6h-5.954l1.846-6zm-1.036 7h4.34l-2.17 1.844-2.17-1.844zm6.166.313 5.2 4.687h-5.2v-4.687zm-8 .03v4.657h-5.193l5.193-4.658zm1 .26 2.23 1.897-2.23 1.895v-3.791zm6 .009v3.777l-2.225-1.888 2.225-1.889zm-2.996 2.545 2.172 1.844h-4.344l2.172-1.844zm-2.172 2.844h4.344l-2.172 1.843-2.172-1.843zm6.168.312 5.2 4.688h-5.2v-4.688zm-8 .027v4.66h-5.193l5.193-4.66zm1 .266 2.23 1.895-2.23 1.894v-3.789zm6 .006v3.777l-2.223-1.888 2.223-1.889zm-2.996 2.545 2.17 1.844h-4.34l2.17-1.844zm-2.28 2.844h4.546l-2.274 2.195-2.271-2.195zm5.635.338 4.332 8.662h-.646l-6.328-6.112 2.642-2.55zm-6.72.004 2.638 2.546-6.328 6.112h-.64l4.33-8.658zm3.357 3.242 5.61 5.416h-11.217l5.607-5.416z" color="#000" font-family="sans-serif" font-weight="400" overflow="visible"></path></g></svg>