<svg xmlns="http://www.w3.org/2000/svg" xmlns:xlink="http://www.w3.org/1999/xlink" viewBox="0 0 64 64"><defs><linearGradient id="a" x1="32" x2="32" y1="38" y2="33" gradientUnits="userSpaceOnUse"><stop offset="0" stop-color="#54a5ff"/><stop offset="1" stop-color="#8ad3fe"/></linearGradient><linearGradient id="b" y1="35" xlink:href="#a"/></defs><g data-name="restaurant (not cutlery)"><rect width="26" height="11" x="19" y="4" fill="#96a1c3" rx="2" ry="2"/><path fill="#ccd3eb" d="M45 6v6H27.34A5.35 5.35 0 0 1 22 6.66V4h21a2 2 0 0 1 2 2zm11 15v37a2 2 0 0 1-2 2H10a2 2 0 0 1-2-2V21z"/><path fill="#f5f7ff" d="M56 21v36H29.06A17.06 17.06 0 0 1 12 39.94V21Z"/><path fill="none" stroke="#000" stroke-linecap="round" stroke-linejoin="round" stroke-width="2" d="M32 35h0z"/><path fill="url(#a)" d="M32 38a1 1 0 0 1-1-1v-3a1 1 0 0 1 2 0v3a1 1 0 0 1-1 1Z"/><path fill="url(#b)" d="M34 35h-4a1 1 0 0 1 0-2h4a1 1 0 0 1 0 2Z"/><path fill="#fe9661" d="M32 57a1 1 0 0 1-1-1v-9a1 1 0 0 1 2 0v9a1 1 0 0 1-1 1Z"/><path fill="#647499" d="M41 60H23a5.26 5.26 0 0 1 4.33-3.93A4.62 4.62 0 0 1 28 56h7.9a5.27 5.27 0 0 1 3.25 1.12A4.89 4.89 0 0 1 40 58a5.22 5.22 0 0 1 1 2Z"/><path fill="#96a1c3" d="M40 58H28.92c-1.92 0-1.76-1-1.59-1.93A4.62 4.62 0 0 1 28 56h7.9a5.27 5.27 0 0 1 3.25 1.12A4.89 4.89 0 0 1 40 58Z"/><path fill="#647499" d="M46 45a2 2 0 0 1-2 2H20a2 2 0 0 1-2-2 2 2 0 0 1 2-2h24a2 2 0 0 1 2 2Z"/><path fill="#96a1c3" d="M46 45H22a2 2 0 0 1-2-2h24a2 2 0 0 1 2 2Z"/><path fill="#0074ff" d="M60 25v.83A4.12 4.12 0 0 1 56.39 30H56a4 4 0 0 1-4-4l-3-13h2.53a4 4 0 0 1 3.58 2.21Z"/><path fill="#0074ff" d="M52 26a4 4 0 0 1-8 0l-1-11a2 2 0 0 0 2-2h4Z"/><path fill="#0074ff" d="M44 26a4 4 0 0 1-8 0V15h7zm-8-11v11a4 4 0 0 1-8 0V15zm-15 0-1 11a4 4 0 0 1-8 0l3-13h4a2 2 0 0 0 2 2z"/><path fill="#0074ff" d="m15 13-3 13a4 4 0 0 1-4 4h-.39A4.12 4.12 0 0 1 4 25.83V25l4.89-9.79A4 4 0 0 1 12.47 13zm13 2v11a4 4 0 0 1-8 0l1-11zm10.92 28a6.87 6.87 0 0 0-2-4 7 7 0 0 0-11.87 4"/><path fill="#033c59" d="M56 39a1 1 0 0 0-1 1v1a1 1 0 0 0 2 0v-1a1 1 0 0 0-1-1Z"/><path fill="#033c59" d="M60.89 24.55 56 14.76A5 5 0 0 0 51.53 12H46V6a3 3 0 0 0-3-3H21a3 3 0 0 0-3 3v6h-5.53A5 5 0 0 0 8 14.76l-4.89 9.79A1 1 0 0 0 3 25v.83a5.15 5.15 0 0 0 4 5.05V60a1 1 0 0 0 1 1h48a1 1 0 0 0 1-1V45a1 1 0 0 0-2 0v14H41.71a6.25 6.25 0 0 0-5.83-4H33v-7h11a3 3 0 0 0 0-6h-4.28A7.88 7.88 0 0 0 33 36.07v-1.1h1a1 1 0 0 0 0-2h-4a1 1 0 0 0 0 2h1v1.07A8 8 0 0 0 24.27 42H20a3 3 0 0 0 0 6h11v7h-2.88a6.25 6.25 0 0 0-5.83 4H9V30.87a4.92 4.92 0 0 0 2.36-1.17A5.26 5.26 0 0 0 12 29a5 5 0 0 0 8 0 5 5 0 0 0 8 0 5 5 0 0 0 8 0 5 5 0 0 0 8 0 5 5 0 0 0 8 0 5.26 5.26 0 0 0 .64.7A4.92 4.92 0 0 0 55 30.87V36a1 1 0 0 0 2 0v-5.12a5.15 5.15 0 0 0 4-5.05V25a1 1 0 0 0-.11-.45ZM32 38a5.93 5.93 0 0 1 4.24 1.76 5.8 5.8 0 0 1 1.4 2.24H26.36A6 6 0 0 1 32 38Zm-13 7a1 1 0 0 1 1-1h24a1 1 0 0 1 0 2H20a1 1 0 0 1-1-1Zm9.12 12h7.76a4.28 4.28 0 0 1 3.62 2h-15a4.28 4.28 0 0 1 3.62-2ZM20 6a1 1 0 0 1 1-1h22a1 1 0 0 1 1 1v7a1 1 0 0 1-1 1H21a1 1 0 0 1-1-1ZM10 28.22a3 3 0 0 1-2.3.78A3.12 3.12 0 0 1 5 25.83v-.59l4.79-9.58A3 3 0 0 1 12.47 14h1.27L11 25.77V26a3 3 0 0 1-1 2.22Zm6 .78a3 3 0 0 1-3-2.92L15.8 14h2.37a1 1 0 0 1 0 .1l.08.16a3.24 3.24 0 0 0 .17.32l.09.15a3 3 0 0 0 .28.33l.06.07a4.12 4.12 0 0 0 .4.33l.13.08a2.21 2.21 0 0 0 .34.18l.16.07L19 25.91v.05c0 .05 0 0 0 0A3 3 0 0 1 16 29Zm8 0a3 3 0 0 1-3-3l.91-10H27v10a3 3 0 0 1-3 3Zm8 0a3 3 0 0 1-3-3V16h6v10a3 3 0 0 1-3 3Zm8 0a3 3 0 0 1-3-3V16h5.09L43 26a3 3 0 0 1-3 3Zm8 0a3 3 0 0 1-3-3s0 0 0-.05l-.92-10.12.16-.07a2.21 2.21 0 0 0 .34-.18l.13-.08a4.12 4.12 0 0 0 .4-.33l.06-.07a3 3 0 0 0 .28-.33l.09-.15a3.24 3.24 0 0 0 .17-.32s0-.11.08-.16a1 1 0 0 1 0-.1h2.41L51 26.08A3 3 0 0 1 48 29Zm11-3.17A3.12 3.12 0 0 1 56.3 29a3 3 0 0 1-2.3-.78A3 3 0 0 1 53 26s0-.07 0-.11v-.12L50.26 14h1.27a3 3 0 0 1 2.68 1.66L59 25.24Z"/></g></svg>