<svg xmlns="http://www.w3.org/2000/svg" xmlns:xlink="http://www.w3.org/1999/xlink" viewBox="0 0 32 32"><defs><linearGradient id="a"><stop offset="0" stop-color="#000092"/><stop offset="1" stop-color="#ff00f3"/></linearGradient><linearGradient id="b" x1="2" x2="28" y1="15.999" y2="15.999" gradientUnits="userSpaceOnUse" xlink:href="#a"/></defs><path fill="url(#b)" d="M2.406 2A.5.5 0 0 0 2 2.5v27a.5.5 0 0 0 .5.5h15a.5.5 0 0 0 .5-.5V24h10.438c.861 0 1.562-.7 1.562-1.563V9.563C30 8.701 29.3 8 28.437 8H18V2.5a.5.5 0 0 0-.5-.5h-15a.5.5 0 0 0-.094 0zM3 3h14v5h-.5V6a.5.5 0 0 0-.5-.5H4a.5.5 0 0 0-.156 0A.5.5 0 0 0 3.5 6v19a.5.5 0 0 0 .5.5h12a.5.5 0 0 0 .5-.5v-1h.5v5H3V3zm5 1v1h4V4H8zM4.5 6.5h11V8H6.562C5.702 8 5 8.7 5 9.563v12.875C5 23.299 5.7 24 6.563 24H15.5v.5h-11v-18zM6.563 9h21.875c.325 0 .562.237.562.563V10H6v-.438C6 9.238 6.237 9 6.563 9zM6 11h23v2H6v-2zm0 3h23v8.438a.545.545 0 0 1-.563.562H6.563A.545.545 0 0 1 6 22.437V14zm16.5 1a2.508 2.508 0 0 0-2.5 2.5c0 1.375 1.125 2.5 2.5 2.5.562 0 1.084-.19 1.5-.5.419.316.938.5 1.5.5 1.375 0 2.5-1.125 2.5-2.5S26.875 15 25.5 15c-.555 0-1.084.19-1.5.5-.416-.31-.938-.5-1.5-.5zM7 16v3h11v-3H7zm15.5 0c.319 0 .58.157.813.344a2.395 2.395 0 0 0-.282.843c-.029.101-.031.201-.031.313 0 .112.002.212.031.313.038.298.116.587.25.843-.226.181-.471.344-.781.344-.834 0-1.5-.666-1.5-1.5s.666-1.5 1.5-1.5zm3 0c.834 0 1.5.666 1.5 1.5s-.666 1.5-1.5 1.5c-.458 0-.85-.213-1.125-.531a1.55 1.55 0 0 1-.25-.375c-.004-.01.004-.022 0-.032-.023-.053-.046-.1-.063-.156A1.569 1.569 0 0 1 24 17.5c0-.094.014-.194.031-.281.017-.085.032-.171.063-.25.064-.162.164-.304.281-.438l.063-.093c.27-.271.645-.438 1.062-.438zM8 17h9v1H8v-1zm-1 4v1h3v-1H7zm4 0v1h3v-1h-3zm4 0v1h3v-1h-3zm4 0v1h3v-1h-3zm-9.156 5A1 1 0 0 0 9 27a1 1 0 0 0 1 1 1 1 0 0 0 1-1 1 1 0 0 0-1-1 1 1 0 0 0-.156 0z" color="#000" overflow="visible" style="text-indent:0;text-align:start;line-height:125%;text-transform:none;block-progression:tb;marker:none;-inkscape-font-specification:Sans" font-family="sans-serif" font-weight="400" letter-spacing="0" word-spacing="0"/></svg>