<svg xmlns="http://www.w3.org/2000/svg" data-name="Layer 3" viewBox="0 0 64 64"><rect width="42" height="9" x="6" y="54" fill="#f2b9a1"/><path fill="#004c9d" d="M39,54H49V48.239a12.2,12.2,0,0,0-1.607-6.051h0a12.2,12.2,0,0,0-5.679-5.114L37.8,35.786,32,34V30.661H22V34l-5.8,1.786-3.91,1.288a12.2,12.2,0,0,0-5.679,5.114h0A12.2,12.2,0,0,0,5,48.239V54H15v9H39Z"/><path fill="#0059be" d="M47.393,42.188h0a12.2,12.2,0,0,0-5.679-5.114L37.8,35.786,32,34V30.661H25V34l-5.8,1.786-3.91,1.288a12.2,12.2,0,0,0-5.679,5.114h0A12.2,12.2,0,0,0,8,48.239V54h7v9H39V54H49V48.239A12.2,12.2,0,0,0,47.393,42.188Z"/><path fill="#d08d78" d="M27,39a18.031,18.031,0,0,0,5-5h0V30.661H22V34h0A18.031,18.031,0,0,0,27,39Z"/><path fill="#383838" d="M14.094,15a6.98,6.98,0,0,0,.115,2.837l.6,2.409H39.188l.124-.493A23.043,23.043,0,0,0,39.974,15Z"/><path fill="#4c4c4c" d="M17.094,15a6.98,6.98,0,0,0,.115,2.837l.6,2.409H39.188l.124-.493A23.043,23.043,0,0,0,39.974,15Z"/><path fill="#d08d78" d="M17.109,20H16a3,3,0,0,0-3,3h0a3,3,0,0,0,3,3h1.833"/><path fill="#d08d78" d="M30.664,13.891h0A5.3,5.3,0,0,1,33.606,13h0a1.935,1.935,0,0,1,1.835,1.323l.61,1.831A18.468,18.468,0,0,1,37,22h0A10,10,0,0,1,27,32h0A10,10,0,0,1,17,22h0a18.468,18.468,0,0,1,.949-5.846l.61-1.831A1.935,1.935,0,0,1,20.394,13h0a5.3,5.3,0,0,1,2.942.891h0A6.608,6.608,0,0,0,27,15h0A6.608,6.608,0,0,0,30.664,13.891Z"/><path fill="#f2b9a1" d="M28,31.95A10,10,0,0,0,37,22h0a18.468,18.468,0,0,0-.949-5.846l-.61-1.831A1.935,1.935,0,0,0,33.606,13a5.3,5.3,0,0,0-2.942.891,6.607,6.607,0,0,1-7.328,0,5.277,5.277,0,0,0-1.68-.725,1.917,1.917,0,0,0-1.1,1.157l-.61,1.831A18.468,18.468,0,0,0,19,22,10,10,0,0,0,28,31.95Z"/><path fill="#a5badb" d="M14,15l1.859,1.859A3.9,3.9,0,0,0,18.614,18h0a3.837,3.837,0,0,0,.764-.076l1.68-.336A30.326,30.326,0,0,1,27,17h0a30.3,30.3,0,0,1,5.939.588l1.683.336a3.837,3.837,0,0,0,.764.076h0a3.9,3.9,0,0,0,2.755-1.141L40,15l-.784-5.1A9.323,9.323,0,0,0,30,2H24a9.325,9.325,0,0,0-9.216,7.906Z"/><path fill="#c1cfe8" d="M17.784,9.906,17.4,12.4a5.185,5.185,0,0,0,1.459,4.457,3.882,3.882,0,0,0,1.407.888l.792-.159a30.3,30.3,0,0,1,11.881,0l1.683.336a3.837,3.837,0,0,0,.764.076,3.9,3.9,0,0,0,2.755-1.141L40,15l-.784-5.1A9.323,9.323,0,0,0,30,2H27A9.323,9.323,0,0,0,17.784,9.906Z"/><path fill="#d08d78" d="M36.891,20H38a3,3,0,0,1,3,3h0a3,3,0,0,1-3,3H36.167"/><polygon fill="#c1cfe8" points="41 63 39.714 55.286 36 51 15 51 13 63 41 63"/><path fill="#d7e0ef" d="M17.3,57.191,16.333,63H41l-1.286-7.714L37.733,53H22.249A5.017,5.017,0,0,0,17.3,57.191Z"/><polyline fill="#95afd1" points="16 51 12 36 16 35 20 51"/><polyline fill="#0059be" points="31 13.034 31 8 23 8 23 13.034"/><rect width="2" height="12" x="26" y="39" fill="#004c9d"/><path fill="#d7e0ef" d="M29.615,13h-5.23A27.968,27.968,0,0,0,14,15l1.859,1.859A3.9,3.9,0,0,0,18.614,18a3.837,3.837,0,0,0,.764-.076l1.68-.336a30.3,30.3,0,0,1,11.881,0l1.683.336a3.837,3.837,0,0,0,.764.076,3.9,3.9,0,0,0,2.755-1.141L40,15A27.968,27.968,0,0,0,29.615,13Z"/><path fill="#f2b9a1" d="M32,34h0V31.651a9.95,9.95,0,0,1-7.633,1A1.065,1.065,0,0,0,23,33.66h0a1.088,1.088,0,0,0,.192.622A18.06,18.06,0,0,0,27.5,38.63,18.025,18.025,0,0,0,32,34Z"/><path fill="#a5badb" d="M32 34h0a18.031 18.031 0 01-5 5h0l4 5 4.814-8.826M22 34h0a18.031 18.031 0 005 5h0l-4 5-4.814-8.826"/><polyline fill="#95afd1" points="38 51 42 36 38 35 34 51"/><path fill="#595959" d="M59,39a7,7,0,0,1-7,7,6.807,6.807,0,0,1-2.52-.48L33.83,61.17a2.828,2.828,0,1,1-4-4L45.48,41.52A6.807,6.807,0,0,1,45,39a7,7,0,0,1,7-7,6.871,6.871,0,0,1,1.77.23L50,36l1,4,4,1,3.77-3.77A6.871,6.871,0,0,1,59,39Z"/><path fill="#4c4c4c" d="M55,41l-4-1L29.83,61.17a2.825,2.825,0,0,0,4,0L49.48,45.52A6.807,6.807,0,0,0,52,46a7,7,0,0,0,7-7,6.871,6.871,0,0,0-.23-1.77Z"/></svg>