<svg xmlns="http://www.w3.org/2000/svg" viewBox="0 0 48 48"><g data-name="23-Software"><rect width="32" height="46" x="8" y="1" fill="#e4ebf0" rx="2" ry="2"/><rect width="32" height="34" x="8" y="7" fill="#b5e0f0"/><path fill="#d0d7dc" d="M13 1H10A2 2 0 0 0 8 3V7h5zM10 47h3V41H8v4A2 2 0 0 0 10 47z"/><rect width="5" height="34" x="8" y="7" fill="#4ea0ca"/><circle cx="3" cy="3" r="2" fill="#ff6953"/><circle cx="3" cy="24" r="2" fill="#ff6953"/><circle cx="3" cy="45" r="2" fill="#ff6953"/><circle cx="45" cy="45" r="2" fill="#ff6953"/><circle cx="45" cy="24" r="2" fill="#ff6953"/><circle cx="45" cy="3" r="2" fill="#ff6953"/><polygon fill="#ffb422" points="32 20 24 26 16 20 24 14 32 20"/><polygon fill="#ffd24f" points="32 24 32 28 24 34 24 26 32 20 32 24"/><polygon fill="#ffbe1e" points="24 26 24 34 16 28 16 24 16 20 24 26"/><path fill="#221a29" d="M9 8H39v2h2V3a3 3 0 0 0-3-3H10A3 3 0 0 0 7 3v7H9zm1-6H38a1 1 0 0 1 1 1V6H9V3A1 1 0 0 1 10 2zM39 40H9V38H7v7a3 3 0 0 0 3 3H38a3 3 0 0 0 3-3V38H39zm-1 6H10a1 1 0 0 1-1-1V42H39v3A1 1 0 0 1 38 46zM15 20v8a1 1 0 0 0 .4.8l8 6 .005-.007a1.022 1.022 0 0 0 .148.1A1.008 1.008 0 0 0 24 35a1 1 0 0 0 .6-.2l8-6A1 1 0 0 0 33 28V20a.993.993 0 0 0-.406-.793L32.6 19.2l-8-6a1 1 0 0 0-1.2 0l-8 6 0 .007A.992.992 0 0 0 15 20zm2 2l6 4.5V32l-6-4.5zm14 5.5L25 32V26.5L31 22zM24 15.25L30.334 20 24 24.75 17.667 20z"/><path fill="#221a29" d="M2 5.816V9a1 1 0 0 0 .293.707L7 14.414V21H9V16.414l3.293 3.293 1.414-1.414L4 8.586V5.816a3 3 0 1 0-2 0zM3 2A1 1 0 1 1 2 3 1 1 0 0 1 3 2zM44 5.816v2.77l-9.707 9.707 1.414 1.414L39 16.414V21h2V14.414l4.707-4.707A1 1 0 0 0 46 9V5.816a3 3 0 1 0-2 0zM45 2a1 1 0 1 1-1 1A1 1 0 0 1 45 2zM46 42.184V39a1 1 0 0 0-.293-.707l-10-10-1.414 1.414L44 39.414v2.77a3 3 0 1 0 2 0zM45 46a1 1 0 1 1 1-1A1 1 0 0 1 45 46zM4 42.184v-2.77l9.707-9.707-1.414-1.414-10 10A1 1 0 0 0 2 39v3.184a3 3 0 1 0 2 0zM3 46a1 1 0 1 1 1-1A1 1 0 0 1 3 46zM3 27a3 3 0 0 0 2.816-2H7v5H9V25h4V23H5.816A2.995 2.995 0 1 0 3 27zm0-4a1 1 0 1 1-1 1A1 1 0 0 1 3 23zM45 21a3 3 0 0 0-2.816 2H35v2h4v5h2V25h1.184A2.995 2.995 0 1 0 45 21zm0 4a1 1 0 1 1 1-1A1 1 0 0 1 45 25z"/></g></svg>