<svg xmlns="http://www.w3.org/2000/svg" viewBox="0 0 512 512"><path fill="#CDCDC6" d="M7.943 341.696v26.11c0 13.255 10.745 24 24 24h448.113c13.255 0 24-10.745 24-24v-26.11H7.943z"/><path fill="#989898" d="M31.252 367.806v-26.11H7.943v26.11c0 13.255 10.745 24 24 24h23.309c-13.255 0-24-10.745-24-24z"/><path fill="#68C0E0" d="M479.418 84.4H32.582c-13.608 0-24.639 11.22-24.639 25.06v232.235h496.113V109.46c.001-13.84-11.031-25.06-24.638-25.06z"/><path fill="#3282A1" d="M32.582 84.4c-13.608 0-24.639 11.22-24.639 25.06v232.235h23.309V109.46c0-13.84 11.031-25.06 24.639-25.06H32.582z"/><path fill="#F1F1EE" d="M95.062 40.938v242.607c0 13.255 10.745 24 24 24h273.037c13.255 0 24-10.745 24-24V40.938H95.062z"/><path fill="#CDCDC6" d="M118.371 283.545V40.938H95.062v242.607c0 13.255 10.745 24 24 24h23.309c-13.255 0-24-10.745-24-24zm265.56 191.103H128.069c-7.974 0-14.438 6.464-14.438 14.438v15.39h284.738v-15.39c0-7.974-6.464-14.438-14.438-14.438z"/><path fill="#989898" d="M128.069 474.647c-7.974 0-14.438 6.464-14.438 14.438v15.39h23.309v-15.39c0-7.974 6.464-14.438 14.438-14.438h-23.309zM318.593 391.806H192.568l-11.225 82.842h148.475z"/><path fill="#494A47" d="M391.039 7.524H120.122c-13.84 0-25.06 11.22-25.06 25.06v8.353h321.037v-8.353c0-13.84-11.22-25.06-25.06-25.06z"/><path fill="#333331" d="M120.122 7.524c-13.84 0-25.06 11.22-25.06 25.06v8.353h23.309v-8.353c0-13.84 11.22-25.06 25.06-25.06h-23.309z"/><path fill="#CA4336" d="M131.857 17.947h12.568v12.568h-12.568z"/><path fill="#494A47" d="M461.29 359.662h12.568v12.568H461.29z"/><path fill="#F8D250" d="M156.9 17.947h12.568v12.568H156.9z"/><path fill="#26A08A" d="M182.306 17.947h12.568v12.568h-12.568z"/><path fill="#3282A1" d="m256 223.707-60.224-40.193v59.65l60.149 39.998 60.299-39.998v-59.65z"/><path fill="#68C0E0" d="M196.29 183.768v59.649l22.994 15.299v-59.602z"/><path fill="#F8D250" d="m256 143.322-60.224 40.192L256 223.707l60.224-40.193z"/><path fill="#CA4336" d="M256 65.321c-7.777 0-14.081 6.304-14.081 14.081 0 7.777 6.304 14.081 14.081 14.081s14.081-6.304 14.081-14.081c0-7.777-6.304-14.081-14.081-14.081zm-84 0c-7.777 0-14.081 6.304-14.081 14.081 0 7.777 6.304 14.081 14.081 14.081s14.081-6.304 14.081-14.081c0-7.777-6.304-14.081-14.081-14.081zM340 65.321c-7.777 0-14.081 6.304-14.081 14.081 0 7.777 6.304 14.081 14.081 14.081s14.081-6.304 14.081-14.081c0-7.777-6.304-14.081-14.081-14.081z"/><path d="M479.418 79.4h-58.319V32.584c0-16.575-13.484-30.06-30.06-30.06H120.122c-16.575 0-30.06 13.485-30.06 30.06V79.4h-57.48c-16.343 0-29.639 13.485-29.639 30.06v257.286c0 16.575 13.296 30.06 29.639 30.06h154.263l-9.871 72.841h-48.905c-10.719 0-19.438 8.72-19.438 19.438v15.39a5 5 0 0 0 5 5h284.738a5 5 0 0 0 5-5v-15.39c0-10.718-8.72-19.438-19.438-19.438h-49.744l-9.871-72.841h155.102c15.789 0 29.639-12.965 29.639-27.745V111.776c0-18.457-12.743-32.376-29.639-32.376zM100.063 32.584c0-11.061 8.999-20.06 20.06-20.06H391.04c11.061 0 20.06 8.999 20.06 20.06v3.353H100.063v-3.353zm0 13.354h311.036v237.607c0 10.477-8.523 19-19 19H119.063c-10.477 0-19-8.523-19-19V45.938zm283.868 433.709c5.204 0 9.438 4.234 9.438 9.438v10.39H118.631v-10.39c0-5.205 4.234-9.438 9.438-9.438h255.862zm-196.865-10 9.87-72.841h117.288l9.87 72.841H187.066zm311.991-100.585c0 8.376-8.398 17.745-19.639 17.745H32.582c-10.829 0-19.639-8.999-19.639-20.06v-20.05h486.113v22.365zm0-32.366H12.943V109.46c0-11.061 8.81-20.06 19.639-20.06h57.48v194.145c0 15.991 13.01 29 29 29h273.036c15.99 0 29-13.009 29-29V89.4h58.319c11.38 0 19.639 9.41 19.639 22.376v224.92z"/><path d="M340 60.321c-10.521 0-19.081 8.56-19.081 19.081 0 8.789 5.981 16.188 14.081 18.394v18.607h-30.72a5 5 0 0 0-5 5v44.794l-37.861-25.268V97.687c7.888-2.342 13.662-9.647 13.662-18.286 0-10.521-8.56-19.081-19.081-19.081s-19.081 8.56-19.081 19.081c0 8.94 6.188 16.442 14.5 18.502v42.465l-38.699 25.827v-44.794a5 5 0 0 0-5-5H177V97.795c8.1-2.205 14.081-9.605 14.081-18.394 0-10.521-8.56-19.081-19.081-19.081s-19.081 8.56-19.081 19.081c0 8.789 5.981 16.188 14.081 18.394v23.607a5 5 0 0 0 5 5h30.72v46.468l-9.719 6.486a5 5 0 0 0-2.225 4.159v59.65c0 1.674.838 3.237 2.231 4.164l60.148 39.998a4.999 4.999 0 0 0 5.533.003l60.299-39.998a5.001 5.001 0 0 0 2.236-4.167v-59.65a5 5 0 0 0-2.225-4.159l-9.719-6.486v-46.468H340a5 5 0 0 0 5-5V97.795c8.1-2.205 14.081-9.605 14.081-18.394 0-10.521-8.56-19.08-19.081-19.08zm-177.081 19.08c0-5.007 4.074-9.081 9.081-9.081s9.081 4.073 9.081 9.081-4.074 9.081-9.081 9.081-9.081-4.074-9.081-9.081zm84 0c0-5.007 4.074-9.081 9.081-9.081s9.081 4.073 9.081 9.081-4.074 9.081-9.081 9.081-9.081-4.074-9.081-9.081zM251 273.882l-50.224-33.397v-47.622L251 226.381v47.501zm5-56.187-51.217-34.181L256 149.333l51.217 34.181L256 217.695zm55.224-24.832v47.618L261 273.795V226.38l50.224-33.517zM340 88.482c-5.007 0-9.081-4.074-9.081-9.081s4.074-9.081 9.081-9.081 9.081 4.073 9.081 9.081-4.074 9.081-9.081 9.081z"/></svg>